<?xml version="1.0" encoding="iso-8859-1"?>
<!-- Generator: Adobe Illustrator 19.0.0, SVG Export Plug-In . SVG Version: 6.00 Build 0)  -->
<svg version="1.1" id="Capa_1" xmlns="http://www.w3.org/2000/svg" xmlns:xlink="http://www.w3.org/1999/xlink" x="0px" y="0px"
	 viewBox="0 0 512.001 512.001" style="enable-background:new 0 0 512.001 512.001;" xml:space="preserve">
<circle style="fill:#FDD36E;" cx="256" cy="256.001" r="256"/>
<path style="fill:#505E93;" d="M292.772,96.273h-73.545c-28.174,0-51.227,23.052-51.227,51.228v46.36h176v-46.36
	C344,119.325,320.948,96.273,292.772,96.273z"/>
<path style="fill:#474F70;" d="M239.136,96.273h-19.908c-28.175,0-51.228,23.052-51.228,51.228v46.36h34.447v-60.899
	C202.447,112.783,218.957,96.273,239.136,96.273z"/>
<path style="fill:#E8F7F9;" d="M139.971,162.677H87.043c-6.6,0-12,5.4-12,12v37.326h76.928v-37.326
	C151.971,168.078,146.571,162.677,139.971,162.677z"/>
<path style="fill:#C3F1FC;" d="M125.507,162.677H87.043c-6.6,0-12,5.4-12,12v37.327h38.464v-37.327
	C113.507,168.078,118.907,162.677,125.507,162.677z"/>
<path style="fill:#69739B;" d="M475.393,217.543c0-16.68-13.522-30.202-30.202-30.202H66.809c-16.68,0-30.202,13.522-30.202,30.202
	c0,7.448,0,161.9,0,170.434c16.408,27.218,37.739,51.127,62.758,70.509h313.269c25.019-19.382,46.351-43.291,62.759-70.509
	C475.393,379.443,475.393,225,475.393,217.543z"/>
<path style="fill:#505E93;" d="M437.001,187.341h-41.333v271.145h16.967c8.576-6.644,16.707-13.832,24.367-21.49V187.341H437.001z"
	/>
<g>
	<path style="fill:#474F70;" d="M75.043,217.543c0-16.68,13.522-30.202,30.202-30.202H66.809c-16.68,0-30.202,13.522-30.202,30.202
		c0,7.448,0,161.9,0,170.434c10.795,17.906,23.732,34.368,38.436,49.063C75.043,418.428,75.043,246.646,75.043,217.543z"/>
	<rect x="113.51" y="187.341" style="fill:#474F70;" width="284.99" height="271.14"/>
	<circle style="fill:#474F70;" cx="256" cy="322.911" r="99.61"/>
</g>
<circle style="fill:#E8F7F9;" cx="256" cy="322.911" r="88"/>
<path style="fill:#C3F1FC;" d="M203.399,353.283c-21.982-38.075-12.277-85.746,20.932-112.484c-4.193,1.623-8.315,3.586-12.33,5.904
	c-42.09,24.301-56.511,78.121-32.21,120.21c24.301,42.09,78.121,56.511,120.21,32.21c4.015-2.318,7.777-4.907,11.279-7.726
	C271.519,406.788,225.381,391.357,203.399,353.283z"/>
<path style="fill:#323B5B;" d="M166.416,187.341h-52.909v271.145H250.56C133.31,423.876,90.257,281.136,166.416,187.341z"/>
<circle style="fill:#C3F1FC;" cx="256" cy="322.911" r="59.896"/>
<path style="fill:#A5E5F9;" d="M232.391,336.544c-13.71-23.747-9.297-52.968,8.926-71.696c-5.228,1.325-10.365,3.365-15.265,6.194
	c-28.648,16.54-38.463,53.171-21.923,81.819s53.171,38.463,81.819,21.923c4.901-2.829,9.236-6.258,12.997-10.123
	C273.615,371.079,246.101,360.291,232.391,336.544z"/>
<circle style="fill:#55CEED;" cx="256" cy="322.911" r="27.26"/>
<path style="fill:#17A3BF;" d="M256,322.913c-5.044-8.737-4.696-19.102,0.002-27.258c-4.634-0.005-9.331,1.165-13.633,3.649
	c-13.039,7.528-17.506,24.201-9.978,37.24s24.201,17.506,37.24,9.978c4.302-2.484,7.663-5.966,9.976-9.982
	C270.195,336.531,261.044,331.65,256,322.913z"/>
<path style="fill:#A5E5F9;" d="M113.507,216.226c-8.513,0-15.415,6.901-15.415,15.414v0.738c0,8.513,6.901,15.415,15.415,15.415
	s15.414-6.901,15.414-15.414v-0.738C128.922,223.128,122.02,216.226,113.507,216.226z"/>
<g>
	<path style="fill:#55CEED;" d="M111.604,224.578v-0.738c0-2.769,0.74-5.362,2.019-7.608c-0.039,0-0.076-0.006-0.115-0.006
		c-8.513,0-15.415,6.901-15.415,15.415v0.738c0,8.513,6.901,15.415,15.415,15.415c5.744,0,10.744-3.148,13.396-7.807
		C118.443,239.924,111.604,233.052,111.604,224.578z"/>
	<path style="fill:#55CEED;" d="M364.79,422.519c0,4.673,3.788,8.461,8.461,8.461h50.484c4.673,0,8.461-3.788,8.461-8.461
		s-3.788-8.461-8.461-8.461h-50.484C368.578,414.058,364.79,417.846,364.79,422.519z"/>
</g>
<path style="fill:#17A3BF;" d="M391.29,422.519c0-4.673,3.788-8.461,8.461-8.461h-26.5c-4.673,0-8.461,3.788-8.461,8.461
	s3.788,8.461,8.461,8.461h26.5C395.078,430.98,391.29,427.192,391.29,422.519z"/>
<path style="fill:#C3F1FC;" d="M202.332,133.79c0,7.441,6.032,13.473,13.473,13.473h80.389c7.441,0,13.473-6.032,13.473-13.473
	c0-7.441-6.032-13.473-13.473-13.473h-80.389C208.365,120.317,202.332,126.349,202.332,133.79z"/>
<path style="fill:#A5E5F9;" d="M230.816,133.79c0-7.441,6.032-13.473,13.473-13.473h-28.483c-7.441,0-13.473,6.032-13.473,13.473
	c0,7.441,6.032,13.473,13.473,13.473h28.483C236.848,147.263,230.816,141.231,230.816,133.79z"/>
<g>
	<path style="fill:#E8F7F9;" d="M255.658,56.653c-4.142-0.05-7.459-3.448-7.409-7.59l0.502-41.653
		c0.05-4.142,3.448-7.459,7.59-7.409c4.142,0.05,7.459,3.448,7.409,7.59l-0.502,41.653
		C263.198,53.387,259.801,56.703,255.658,56.653z"/>
	<path style="fill:#E8F7F9;" d="M197.617,71.529c-3.612,2.028-8.183,0.744-10.211-2.869l-20.391-36.323
		c-2.028-3.612-0.744-8.184,2.869-10.211c3.612-2.028,8.184-0.743,10.211,2.868l20.391,36.324
		C202.514,64.93,201.229,69.501,197.617,71.529z"/>
	<path style="fill:#E8F7F9;" d="M314.383,71.529c3.612,2.028,8.183,0.744,10.211-2.869l20.391-36.323
		c2.028-3.612,0.744-8.184-2.868-10.211c-3.612-2.028-8.184-0.743-10.211,2.868l-20.391,36.324
		C309.487,64.93,310.771,69.501,314.383,71.529z"/>
</g>
<path style="fill:#E8846C;" d="M413.516,457.804H98.484c43.433,33.954,98.1,54.197,157.504,54.197
	C315.398,512.001,370.078,491.761,413.516,457.804z"/>
<path style="fill:#DD745F;" d="M232.664,483.475c0-11.29,6.561-21.047,16.076-25.671H98.484
	c43.433,33.954,98.1,54.197,157.504,54.197c1.238,0,2.47-0.022,3.704-0.039C244.634,511.183,232.664,498.727,232.664,483.475z"/>
<g>
</g>
<g>
</g>
<g>
</g>
<g>
</g>
<g>
</g>
<g>
</g>
<g>
</g>
<g>
</g>
<g>
</g>
<g>
</g>
<g>
</g>
<g>
</g>
<g>
</g>
<g>
</g>
<g>
</g>
</svg>
