<svg height="512pt" viewBox="-12 0 512 512" width="512pt" xmlns="http://www.w3.org/2000/svg"><path d="m487 269.5c0-133.929688-109.019531-242.5-243.5-242.5s-243.5 108.570312-243.5 242.5 109.019531 242.5 243.5 242.5 243.5-108.570312 243.5-242.5zm0 0" fill="#494970"/><path d="m301.085938 25h-115.171876c-4.980468 0-9.019531 4.023438-9.019531 8.984375v20.015625h133.210938v-20.015625c0-4.960937-4.039063-8.984375-9.019531-8.984375zm0 0" fill="#c7d6e5"/><path d="m301.085938 25h-41.160157v.03125c4.679688.332031 8.378907 4.207031 8.378907 8.953125v20.015625h41.800781v-20.015625c0-4.960937-4.039063-8.984375-9.019531-8.984375zm0 0" fill="#aebfce"/><path d="m361.316406 0c-13.054687 0-222.550781 0-235.632812 0-9.808594 0-18.289063 6.8125-20.363282 16.363281-19 87.507813-28.578124 176.785157-28.578124 266.316407v163.511718c43.574218 40.800782 102.230468 65.808594 166.757812 65.808594s123.1875-25.007812 166.757812-65.808594v-163.511718c0-89.53125-9.582031-178.808594-28.578124-266.316407-2.074219-9.550781-10.554688-16.363281-20.363282-16.363281zm-53.21875 72.015625c0 4.960937-4.039062 8.984375-9.019531 8.984375h-111.15625c-4.980469 0-9.019531-4.023438-9.019531-8.984375v-36.03125c0-4.960937 4.039062-8.984375 9.019531-8.984375h111.15625c4.980469 0 9.019531 4.023438 9.019531 8.984375zm0 0" fill="#e2e9f2"/><path d="m115.761719 282.679688c0-89.53125 9.582031-178.808594 28.582031-266.316407 2.070312-9.550781 10.550781-16.363281 20.359375-16.363281-20.90625 0-35.824219 0-39.019531 0-9.808594 0-18.289063 6.8125-20.363282 16.363281-18.996093 87.507813-28.578124 176.785157-28.578124 266.316407v163.511718c11.9375 11.175782 25.011718 21.160156 39.023437 29.777344v-193.289062zm0 0" fill="#c7d6e5"/><path d="m217.589844 291.632812-16.152344-62.632812c-36.191406 0-9.820312 0-46 0l-16.152344 62.632812c-4.546875 17.632813-6.847656 35.765626-6.847656 53.972657v94.789062c0 6.015625 4.875 10.890625 10.890625 10.890625h70.21875c6.015625 0 10.890625-4.875 10.890625-10.890625v-94.789062c0-18.207031-2.300781-36.339844-6.847656-53.972657zm0 0" fill="#fab941"/><path d="m169.152344 440.394531v-94.789062c0-18.207031 1.382812-36.339844 4.113281-53.972657l9.707031-62.632812c-7.84375 0-1.519531 0-27.535156 0l-16.152344 62.632812c-4.546875 17.632813-6.847656 35.765626-6.847656 53.972657v94.789062c0 6.015625 4.878906 10.890625 10.890625 10.890625h32.367187c-3.613281 0-6.542968-4.875-6.542968-10.890625zm0 0" fill="#f6a221"/><path d="m217.527344 291.386719c-18.035156 29.019531-60.160156 28.992187-78.175782 0l-.066406.246093c-4.546875 17.632813-6.847656 35.765626-6.847656 53.972657v94.789062c0 6.015625 4.878906 10.890625 10.890625 10.890625h70.21875c6.015625 0 10.890625-4.875 10.890625-10.890625v-94.789062c0-18.207031-2.300781-36.339844-6.847656-53.972657zm0 0" fill="#a0d5ff"/><path d="m169.152344 440.394531v-94.789062c0-11.105469.519531-22.183594 1.542968-33.136719-13.222656-2.246094-24.527343-10.113281-31.34375-21.082031l-.066406.246093c-4.519531 17.527344-6.847656 35.65625-6.847656 53.972657v94.789062c0 4.886719 3.21875 9.019531 7.65625 10.402344 1.019531.316406 2.109375.488281 3.238281.488281h32.367188c-3.617188 0-6.546875-4.875-6.546875-10.890625zm0 0" fill="#75bdef"/><path d="m134.074219 319.136719c-1.082031 8.773437-1.636719 17.613281-1.636719 26.46875v94.789062c0 6.015625 4.875 10.890625 10.890625 10.890625h70.21875c6.015625 0 10.890625-4.875 10.890625-10.890625v-94.789062c0-8.855469-.554688-17.695313-1.636719-26.46875-20.394531 32.933593-68.273437 33.023437-88.726562 0zm0 0" fill="#75bdef"/><path d="m169.152344 440.394531v-94.789062c0-.851563.019531-1.707031.023437-2.558594-14.816406-2.660156-27.457031-11.570313-35.101562-23.910156-1.085938 8.804687-1.636719 17.667969-1.636719 26.46875v94.789062c0 4.886719 3.21875 9.019531 7.652344 10.402344 1.023437.316406 2.113281.488281 3.238281.488281h32.367187c-3.613281 0-6.542968-4.875-6.542968-10.890625zm0 0" fill="#4dade2"/><path d="m243.5 512c61.65625 0 117.941406-22.933594 160.839844-60.714844h-321.679688c42.898438 37.777344 99.183594 60.714844 160.839844 60.714844zm0 0" fill="#fc757e"/><path d="m221.730469 451.285156h-139.070313c37.335938 32.878906 84.816406 54.507813 137.144532 59.566406-22.71875-12.210937-21.625-48.648437 1.925781-59.566406zm0 0" fill="#f5585c"/><path d="m336.800781 189.457031c-10.195312-17.660156-32.777343-23.710937-50.4375-13.515625-17.660156 10.195313-23.710937 32.777344-13.515625 50.4375 10.199219 17.660156 32.78125 23.710938 50.441406 13.515625 17.660157-10.195312 23.710938-32.777343 13.511719-50.4375zm0 0" fill="#fab941"/><path d="m298.40625 211.636719c-7.574219-13.121094-6.175781-28.949219 2.277344-40.40625-4.902344.554687-9.769532 2.09375-14.3125 4.714843-17.660156 10.195313-23.710938 32.777344-13.515625 50.4375 10.199219 17.660157 32.78125 23.710938 50.441406 13.515626 4.542969-2.621094 8.308594-6.070313 11.234375-10.035157-14.144531 1.59375-28.554688-5.109375-36.125-18.226562zm0 0" fill="#f6a221"/><path d="m345.085938 215.425781h-80.5c-4.144532 0-7.5-3.359375-7.5-7.5 0-4.144531 3.355468-7.5 7.5-7.5h80.5c4.140624 0 7.5 3.355469 7.5 7.5 0 4.140625-3.359376 7.5-7.5 7.5zm0 0" fill="#a0d5ff"/><path d="m288.085938 207.925781c0-4.144531 3.355468-7.5 7.5-7.5h-31c-4.144532 0-7.5 3.355469-7.5 7.5 0 4.140625 3.355468 7.5 7.5 7.5h31c-4.144532 0-7.5-3.359375-7.5-7.5zm0 0" fill="#75bdef"/><path d="m210.511719 217.5c0-7.457031-6.042969-13.5-13.5-13.5h-37.144531c-7.457032 0-13.5 6.042969-13.5 13.5s6.042968 13.5 13.5 13.5h37.144531c7.457031 0 13.5-6.042969 13.5-13.5zm0 0" fill="#f6a221"/><path d="m178.4375 217.5c0-7.457031 6.046875-13.5 13.5-13.5h-32.070312c-7.457032 0-13.5 6.042969-13.5 13.5s6.042968 13.5 13.5 13.5h32.070312c-7.453125 0-13.5-6.042969-13.5-13.5zm0 0" fill="#f28a00"/><path d="m340.316406 357.050781h-136.503906c-7.9375 0-14.375 6.4375-14.375 14.375s6.433594 14.375 14.375 14.375h136.503906c7.9375 0 14.375-6.4375 14.375-14.375s-6.4375-14.375-14.375-14.375zm0 0" fill="#bc4c2e"/><path d="m237.648438 371.425781c0-7.9375 6.433593-14.375 14.375-14.375h-48.210938c-7.9375 0-14.375 6.4375-14.375 14.375s6.4375 14.375 14.375 14.375h48.210938c-7.9375 0-14.375-6.4375-14.375-14.375zm0 0" fill="#ab3829"/><path d="m339.878906 407.628906h-135.625c-3.335937 0-6.035156 2.703125-6.035156 6.035156v10.089844c0 15.207032 12.324219 27.53125 27.527344 27.53125h92.632812c15.207032 0 27.53125-12.324218 27.53125-27.53125v-10.089844c0-3.335937-2.699218-6.035156-6.03125-6.035156zm0 0" fill="#e6ac6d"/><path d="m340.441406 407.628906h-136.757812c-3.019532 0-5.464844-2.449218-5.464844-5.46875v-10.890625c0-3.019531 2.445312-5.46875 5.464844-5.46875h136.757812c3.023438 0 5.46875 2.449219 5.46875 5.46875v10.890625c0 3.019532-2.445312 5.46875-5.46875 5.46875zm0 0" fill="#f5585c"/><path d="m243.441406 402.160156v-10.890625c0-3.019531 2.445313-5.46875 5.464844-5.46875h-45.222656c-3.019532 0-5.464844 2.449219-5.464844 5.46875v10.890625c0 3.019532 2.445312 5.46875 5.464844 5.46875h45.222656c-3.019531 0-5.464844-2.449218-5.464844-5.46875zm0 0" fill="#d13044"/><path d="m198.21875 334.753906c0-21.207031 17.1875-38.398437 38.394531-38.398437h70.902344c21.207031 0 38.394531 17.191406 38.394531 38.398437 0 2.90625-2.351562 5.261719-5.257812 5.261719h-137.175782c-2.90625 0-5.257812-2.355469-5.257812-5.261719zm0 0" fill="#e6ac6d"/><path d="m243.15625 423.753906v-10.089844c0-3.335937 2.703125-6.035156 6.035156-6.035156h-44.9375c-3.332031 0-6.035156 2.699219-6.035156 6.035156v10.089844c0 15.207032 12.324219 27.53125 27.53125 27.53125h44.9375c-15.207031 0-27.53125-12.324218-27.53125-27.53125zm0 0" fill="#ce8a4d"/><path d="m243.15625 334.753906c0-21.207031 17.191406-38.398437 38.398438-38.398437h-44.941407c-21.207031 0-38.394531 17.191406-38.394531 38.398437 0 2.90625 2.351562 5.261719 5.257812 5.261719h44.9375c-2.902343 0-5.257812-2.355469-5.257812-5.261719zm0 0" fill="#ce8a4d"/><path d="m340.363281 340.015625h-136.597656c-.773437 1.820313-1.257813 3.820313-1.375 5.96875-.816406 15.101563 16.320313 24.089844 28.242187 15.277344 1.441407-1.070313 3.429688-1.070313 4.875 0 6.25 4.621093 14.769532 4.625 21.027344 0 1.441406-1.070313 3.429688-1.070313 4.875 0 6.128906 4.53125 14.9375 4.710937 21.308594 0 1.441406-1.070313 3.429688-1.070313 4.875 0 6.25 4.621093 14.769531 4.625 21.027344 0 1.441406-1.070313 3.433594-1.070313 4.875 0 11.917968 8.8125 29.058594-.171875 28.242187-15.277344-.117187-2.148437-.601562-4.148437-1.375-5.96875zm0 0" fill="#afbc31"/><path d="m245.265625 345.988281c.117187-2.152343.601563-4.152343 1.375-5.972656h-42.875c-.773437 1.820313-1.257813 3.820313-1.375 5.972656-.816406 15.097657 16.320313 24.085938 28.242187 15.273438 1.441407-1.066407 3.429688-1.066407 4.875 0 5.601563 4.140625 13.023438 4.5625 19.007813 1.277343-5.621094-3.050781-9.65625-9.046874-9.25-16.550781zm0 0" fill="#9fa519"/><path d="m214.628906 407.628906 24.757813 24.757813c4.207031 4.207031 11.09375 4.207031 15.300781 0l24.757812-24.757813zm0 0" fill="#fad964"/><path d="m245.765625 435.460938c-1.671875-3.554688-2.609375-7.519532-2.609375-11.707032v-10.089844c0-3.335937 2.703125-6.035156 6.035156-6.035156h-34.5625l24.757813 24.757813c1.78125 1.78125 4.042969 2.800781 6.378906 3.074219zm0 0" fill="#fab941"/></svg>