<svg height="504pt" viewBox="0 0 504.50413 504" width="504pt" xmlns="http://www.w3.org/2000/svg"><path d="m293.769531 25.433594v470.03125h-83.933593v-470.03125c.027343-9.261719 7.527343-16.761719 16.785156-16.789063h50.363281c9.257813.027344 16.757813 7.527344 16.785156 16.789063zm0 0" fill="#4e342e"/><path d="m268.589844 25.433594v470.03125h-58.753906v-470.03125c.027343-9.261719 7.527343-16.761719 16.785156-16.789063h25.183594c9.257812.027344 16.757812 7.527344 16.785156 16.789063zm0 0" fill="#795548"/><path d="m496.050781 311.398438c.625 9.246093-6.363281 17.25-15.609375 17.875l-437.71875 30.050781c-2.582031.191406-5.171875-.238281-7.554687-1.257813-5.675781-2.339844-9.632813-7.582031-10.324219-13.683594-.074219-.214843-.101562-.445312-.082031-.671874l-1.261719-17.960938-12.335938-180.878906-1.175781-17.375-.671875-9.902344c-.324218-4.449219 1.144532-8.839844 4.074219-12.199219 2.933594-3.355469 7.089844-5.402343 11.539063-5.679687l419.417968-28.789063 18.300782-1.261719c9.246093-.621093 17.25 6.367188 17.875 15.613282l.253906 4.195312 1.34375 18.804688 11.917968 173.828125 1.175782 17.289062zm0 0" fill="#f57c00"/><path d="m470.03125 311.398438c.625 9.246093-6.363281 17.25-15.609375 17.875l-419.253906 28.792968c-5.675781-2.339844-9.632813-7.582031-10.324219-13.683594-.074219-.214843-.101562-.445312-.082031-.671874l-1.261719-17.960938-12.335938-180.878906-1.175781-17.375-.671875-9.902344c-.324218-4.449219 1.144532-8.839844 4.074219-12.199219 2.933594-3.355469 7.089844-5.402343 11.539063-5.679687l419.417968-28.789063c5.804688 2.507813 9.722656 8.042969 10.15625 14.351563l.253906 4.195312 1.34375 18.804688 11.917969 173.828125 1.175781 17.289062zm0 0" fill="#ff9801"/><path d="m268.589844 126.152344c0 9.273437-7.515625 16.789062-16.785156 16.789062-9.273438 0-16.789063-7.515625-16.789063-16.789062 0-9.269532 7.515625-16.785156 16.789063-16.785156 9.269531 0 16.785156 7.515624 16.785156 16.785156zm0 0" fill="#95a5a5"/><path d="m481.046875 337.667969c13.867187-.972657 24.335937-12.984375 23.398437-26.859375l-15.511718-226.117188c-.453125-6.667968-3.542969-12.878906-8.578125-17.265625-5.039063-4.390625-11.613281-6.597656-18.28125-6.136719l-159.910157 10.960938v-46.816406c0-13.90625-11.273437-25.179688-25.179687-25.179688h-50.363281c-13.90625 0-25.179688 11.273438-25.179688 25.179688v53.71875l-177.101562 12.152344c-6.664063.457031-12.875 3.542968-17.265625 8.578124-4.386719 5.039063-6.59375 11.613282-6.132813 18.28125l15.507813 226.117188c.882812 13.210938 11.84375 23.480469 25.082031 23.503906.585938 0 1.167969 0 1.761719-.066406l158.148437-10.894531v97.75l-9.070312-21.171875c-1.15625-2.796875-3.726563-4.757813-6.730469-5.132813-3.003906-.371093-5.976563.902344-7.777344 3.335938-1.800781 2.433593-2.152343 5.648437-.921875 8.414062l14.957032 34.890625-19.707032-11.820312c-2.574218-1.609375-5.8125-1.703125-8.476562-.25-2.664063 1.457031-4.332032 4.234375-4.367188 7.269531s1.570313 5.851563 4.199219 7.367187l15.988281 9.59375h-171.140625c-4.636719 0-8.394531 3.757813-8.394531 8.394532 0 4.636718 3.757812 8.394531 8.394531 8.394531h486.820313c4.632812 0 8.390625-3.757813 8.390625-8.394531 0-4.636719-3.757813-8.394532-8.390625-8.394532h-171.144532l15.988282-9.59375c2.628906-1.515624 4.238281-4.332031 4.203125-7.367187-.035157-3.035156-1.707031-5.8125-4.371094-7.269531-2.660156-1.453125-5.902344-1.359375-8.476563.25l-19.707031 11.820312 14.957031-34.890625c1.234376-2.765625.878907-5.980469-.921874-8.414062-1.800782-2.433594-4.773438-3.707031-7.777344-3.335938-3.003906.375-5.574219 2.335938-6.726563 5.132813l-9.074219 21.171875v-104.660157zm-195.667969-312.234375v47.976562l-16.988281 1.15625c-.09375-.867187-.324219-1.71875-.683594-2.515625l-15.398437-30.804687 6.050781-24.207032h18.625c4.636719 0 8.394531 3.757813 8.394531 8.394532zm-67.148437 0c0-4.636719 3.757812-8.394532 8.390625-8.394532h14.429687l-5.78125 23.140626c-.488281 1.945312-.265625 3.996093.628907 5.792968l14.90625 29.820313-32.574219 2.214843zm-176.113281 325.488281c-4.621094.316406-8.628907-3.175781-8.945313-7.796875l-.210937-3.046875 17.734374-17.734375 12.96875 11.53125c2.25 1.992188 5.390626 2.636719 8.242188 1.6875 2.851562-.953125 4.980469-3.351562 5.582031-6.296875.601563-2.945313-.410156-5.988281-2.660156-7.980469l-8.042969-7.136718 11.40625-3.800782c2.851563-.949218 4.976563-3.34375 5.582032-6.285156.601562-2.9375-.40625-5.980469-2.652344-7.972656-2.246094-1.992188-5.382813-2.636719-8.234375-1.691406l-25.179688 8.394531c-.148437.050781-.242187.183593-.386719.234375-.773437.332031-1.492187.777344-2.128906 1.328125-.265625.140625-.519531.296875-.765625.46875l-12.984375 13.035156-11.675781-170.203125 10.199219 3.273438c2.375.765624 4.960937.433593 7.066406-.90625l.480469-.300782 7.25 13.882813c1.339843 2.742187 4.0625 4.539062 7.105469 4.699219 3.046874.15625 5.941406-1.351563 7.554687-3.9375 1.617187-2.589844 1.703125-5.851563.222656-8.515626l-7.941406-15.21875 11.59375-7.421874c2.539063-1.613282 4.023437-4.464844 3.886719-7.472657-.140625-3.007812-1.878906-5.710937-4.558594-7.082031-2.679688-1.375-5.890625-1.207031-8.410156.4375l-22.867188 14.65625-12.816406-4.121094-.835938-12.589844c-.15625-2.222656.578126-4.417968 2.042969-6.097656 1.464844-1.679687 3.539063-2.707031 5.761719-2.859375l437.742188-30.046875h.585937c4.421875-.011718 8.089844 3.40625 8.394531 7.8125l.570313 8.328125-15.234375 12.839844-16.996094-12.757813c-3.707031-2.78125-8.96875-2.027343-11.75 1.679688s-2.03125 8.96875 1.679688 11.75l8.777343 6.589844-13.46875 3.800781c-4.027343 1.144531-6.59375 5.074219-6.023437 9.21875.570312 4.144531 4.105468 7.238281 8.289062 7.25.769532 0 1.535156-.105469 2.273438-.320313l29.796875-8.390624c.234375-.109376.460937-.230469.679687-.363282.535156-.222656 1.046875-.503906 1.519532-.839844.328124-.144531.644531-.3125.949218-.5l10.910156-9.234374 11.296876 164.746093-7.503907-2.132812c-2.140625-.613281-4.4375-.34375-6.378906.746093l-2.171875 1.226563-8.890625-14.921875c-1.5-2.636719-4.308594-4.257812-7.339844-4.238281-3.035156.015625-5.820312 1.671875-7.292969 4.324219-1.46875 2.652343-1.394531 5.890624.199219 8.472656l8.683594 14.640625-13.050781 7.34375c-4.035156 2.28125-5.460938 7.40625-3.175782 11.445312 2.28125 4.035157 7.40625 5.457031 11.445313 3.175781l26.730469-15.109374 9.957031 2.828124.988281 14.472657c.15625 2.222656-.578125 4.414062-2.042968 6.09375-1.460938 1.679687-3.53125 2.707031-5.753907 2.863281l-186.023437 12.757812h-.101563c-.074219 0-.132812.039063-.207031.039063zm243.261718 136.148437h-18.855468l-14.527344-50.847656 8.082031-48.488281c.574219-2.992187-.515625-6.058594-2.851563-8.015625-2.335937-1.957031-5.546874-2.496094-8.390624-1.40625-2.847657 1.089844-4.878907 3.636719-5.308594 6.652344l-8.394532 50.359375c-.207031 1.234375-.136718 2.496093.210938 3.695312l13.722656 48.050781h-30.835937v-131.398437l67.148437-4.597656zm0 0"/><path d="m276.984375 126.152344c0-13.90625-11.273437-25.179688-25.179687-25.179688s-25.183594 11.273438-25.183594 25.179688 11.277344 25.183594 25.183594 25.183594 25.179687-11.277344 25.179687-25.183594zm-25.179687 8.394531c-4.636719 0-8.394532-3.757813-8.394532-8.394531 0-4.632813 3.757813-8.390625 8.394532-8.390625 4.632812 0 8.390624 3.757812 8.390624 8.390625 0 4.636718-3.757812 8.394531-8.390624 8.394531zm0 0"/><path d="m144.25 169.714844c-4.625.320312-8.113281 4.324218-7.796875 8.949218l2.871094 41.875-33.5 2.289063-2.871094-41.875c-.390625-4.558594-4.367187-7.964844-8.9375-7.652344-4.566406.3125-8.039063 4.230469-7.804687 8.804688l3.4375 50.242187 3.441406 50.242188c.300781 4.414062 3.972656 7.832031 8.394531 7.824218h.578125c4.625-.320312 8.117188-4.324218 7.800781-8.949218l-2.863281-41.867188 33.488281-2.289062 2.871094 41.867187c.300781 4.410157 3.972656 7.832031 8.394531 7.820313h.578125c4.625-.316406 8.113281-4.324219 7.796875-8.945313l-6.882812-100.488281c-.125-2.242188-1.152344-4.339844-2.84375-5.816406-1.695313-1.480469-3.914063-2.210938-6.152344-2.03125zm0 0"/><path d="m211.238281 165.125-16.789062 1.148438c-6.664063.457031-12.875 3.542968-17.265625 8.582031-4.386719 5.035156-6.59375 11.613281-6.132813 18.277343l4.589844 66.988282c.925781 13.195312 11.886719 23.433594 25.113281 23.460937.570313 0 1.148438 0 1.730469-.058593l16.785156-1.152344c6.664063-.457032 12.875-3.542969 17.261719-8.582032 4.386719-5.039062 6.59375-11.613281 6.132812-18.277343l-4.59375-66.976563c-.945312-13.875-12.957031-24.355468-26.832031-23.410156zm6.890625 100.484375-16.785156 1.152344c-2.230469.167969-4.429688-.5625-6.113281-2.027344-1.683594-1.46875-2.710938-3.550781-2.84375-5.78125l-4.59375-66.988281c-.148438-2.21875.585937-4.410156 2.050781-6.089844 1.464844-1.675781 3.535156-2.703125 5.757812-2.855469l16.746094-1.148437h.585938c4.421875-.011719 8.09375 3.410156 8.394531 7.820312l4.589844 66.988282c.308593 4.613281-3.175781 8.609374-7.789063 8.929687zm0 0"/><path d="m292.335938 207.570312c1.679687 1.460938 3.875 2.191407 6.09375 2.035157 2.222656-.160157 4.289062-1.191407 5.75-2.875l17.886718-20.511719 5.496094 80.265625c.394531 4.5625 4.371094 7.964844 8.9375 7.652344s8.042969-4.230469 7.808594-8.804688l-6.890625-100.441406c-.230469-3.390625-2.480469-6.308594-5.703125-7.390625-3.21875-1.082031-6.773438-.117188-9.003906 2.445312l-25.683594 29.46875-29.460938-25.683593c-2.558594-2.230469-6.210937-2.703125-9.25-1.191407-3.042968 1.511719-4.875 4.703126-4.640625 8.089844l6.882813 100.488282c.300781 4.410156 3.972656 7.832031 8.390625 7.824218h.582031c2.222656-.152344 4.292969-1.179687 5.753906-2.859375 1.464844-1.675781 2.203125-3.867187 2.050782-6.089843l-5.507813-80.265626zm0 0"/><path d="m363.914062 269.984375c1.527344 1.332031 3.488282 2.0625 5.515626 2.0625h.578124l50.234376-3.441406c3.035156-.148438 5.75-1.921875 7.105468-4.640625 1.351563-2.71875 1.132813-5.957032-.578125-8.46875-1.710937-2.507813-4.640625-3.898438-7.667969-3.632813l-41.875 2.859375-2.292968-33.496094 33.5-2.292968c4.636718-.316406 8.136718-4.332032 7.816406-8.96875-.316406-4.632813-4.332031-8.132813-8.964844-7.816406l-33.5 2.289062-2.292968-33.496094 41.867187-2.820312c4.636719-.316406 8.136719-4.332032 7.820313-8.96875-.320313-4.636719-4.332032-8.136719-8.96875-7.816406l-50.242188 3.449218c-4.625.316406-8.117188 4.320313-7.800781 8.945313l6.894531 100.488281c.144531 2.222656 1.171875 4.296875 2.851562 5.765625zm0 0"/></svg>