<svg height="512" viewBox="0 0 64 64" width="512" xmlns="http://www.w3.org/2000/svg"><g id="Filled_outline" data-name="Filled outline"><rect fill="#eb8cb3" height="48" rx="2" width="58" x="3" y="3"/><path d="m27 51h10l4 6h-18z" fill="#7d8d9c"/><path d="m16 57h32v4h-32z" fill="#cfdfe8"/><path d="m3 43h58a0 0 0 0 1 0 0v6a2 2 0 0 1 -2 2h-54a2 2 0 0 1 -2-2v-6a0 0 0 0 1 0 0z" fill="#cfdfe8"/><rect fill="#f4f4e6" height="32" rx="2" width="22" x="8" y="7"/><rect fill="#f4f4e6" height="32" rx="2" width="22" x="34" y="7"/><path d="m59 2h-54a3 3 0 0 0 -3 3v44a3 3 0 0 0 3 3h20.132l-2.667 4h-6.465a1 1 0 0 0 -1 1v4a1 1 0 0 0 1 1h32a1 1 0 0 0 1-1v-4a1 1 0 0 0 -1-1h-6.465l-2.667-4h20.132a3 3 0 0 0 3-3v-44a3 3 0 0 0 -3-3zm-54 2h54a1 1 0 0 1 1 1v37h-56v-37a1 1 0 0 1 1-1zm42 56h-30v-2h30zm-7.869-4h-14.262l2.666-4h8.93zm19.869-6h-54a1 1 0 0 1 -1-1v-5h56v5a1 1 0 0 1 -1 1z"/><path d="m31 46h2v2h-2z"/><path d="m10 40h18a3 3 0 0 0 3-3v-28a3 3 0 0 0 -3-3h-18a3 3 0 0 0 -3 3v28a3 3 0 0 0 3 3zm-1-31a1 1 0 0 1 1-1h18a1 1 0 0 1 1 1v28a1 1 0 0 1 -1 1h-18a1 1 0 0 1 -1-1z"/><path d="m36 40h18a3 3 0 0 0 3-3v-28a3 3 0 0 0 -3-3h-18a3 3 0 0 0 -3 3v28a3 3 0 0 0 3 3zm-1-31a1 1 0 0 1 1-1h18a1 1 0 0 1 1 1v28a1 1 0 0 1 -1 1h-18a1 1 0 0 1 -1-1z"/><path d="m16 30a4.992 4.992 0 0 0 4.167-7.753l3.833-3.833v2.586a1 1 0 0 0 2 0v-5a1 1 0 0 0 -1-1h-5a1 1 0 0 0 0 2h2.586l-3.833 3.833a5 5 0 1 0 -2.753 9.167zm0-8a3 3 0 1 1 -3 3 3 3 0 0 1 3-3z"/><path d="m44 23.9v3.1h-2a1 1 0 0 0 0 2h2v2a1 1 0 0 0 2 0v-2h2a1 1 0 0 0 0-2h-2v-3.1a5 5 0 1 0 -2 0zm1-7.9a3 3 0 1 1 -3 3 3 3 0 0 1 3-3z"/><path d="m11 10h2v2h-2z"/><path d="m15 10h2v2h-2z"/><path d="m51 34h2v2h-2z"/></g></svg>