<svg id="Layer_1" height="512" viewBox="0 0 512 512" width="512" xmlns="http://www.w3.org/2000/svg" data-name="Layer 1"><path d="m11 341.22v60.23a4.266 4.266 0 0 0 4.26 4.27h319.91v-64.5z" fill="#3090fc"/><path d="m267.77 61.89h-213.98a42.915 42.915 0 0 0 -42.79 42.79v236.54h299.56v-236.54a42.909 42.909 0 0 0 -42.79-42.79z" fill="#ccd3df"/><path d="m458.21 311.57h-123.04v94.15h161.57a4.266 4.266 0 0 0 4.26-4.27v-37.46c0-22.95-19.26-52.42-42.79-52.42z" fill="#49bdff"/><path d="m444.18 263.28 10.17 48.29h-68.08v-83.49h16.05a42.6 42.6 0 0 1 39.37 26.33 41.908 41.908 0 0 1 2.49 8.87z" fill="#fff27d"/><path d="m402.32 198.08v30h-16.05-6.34v-30z" fill="#50dd5a"/><path d="m335.17 228.08v83.49h51.1v-.41-82.76-.32z" fill="#f9d438"/><path d="m357.55 198.08h22.38v30h-22.38z" fill="#4ca987"/><path d="m335.17 198.08h22.38v30h-22.38z" fill="#50dd5a"/><path d="m455 404.64c0 .36 0 .72-.01 1.08a45.473 45.473 0 0 1 -90.92 0c-.01-.36-.01-.72-.01-1.08a45.47 45.47 0 0 1 90.94 0z" fill="#6d7486"/><path d="m419.53 404.64a1.927 1.927 0 0 1 -.01.24 10 10 0 0 1 -19.99 0v-.24a10 10 0 0 1 20 0z" fill="#4a5160"/><path d="m157.57 404.64c0 .36 0 .72-.01 1.08a45.473 45.473 0 0 1 -90.92 0c-.01-.36-.01-.72-.01-1.08a45.313 45.313 0 0 1 12.24-31.02c.09-.09.17-.18.26-.27a45.453 45.453 0 0 1 65.95 0c.08.09.17.18.25.27a45.267 45.267 0 0 1 12.24 31.02z" fill="#6d7486"/><path d="m122.1 404.64v.24a10 10 0 0 1 -19.99 0 1.927 1.927 0 0 1 -.01-.24 10 10 0 0 1 2.69-6.82l.06-.06a9.983 9.983 0 0 1 14.5 0l.06.06a9.951 9.951 0 0 1 2.69 6.82z" fill="#4a5160"/><path d="m136.454 164.687h105.292v17.101h-105.292z" fill="#6d7486" transform="matrix(.707 -.707 .707 .707 -67.116 184.348)"/><path d="m161.95 220.54-20.16-20.16-16.15 16.16a48.468 48.468 0 0 0 -56.95 8.57l-6.05 6.05-.4.4 68.54 68.54.4-.41 6.04-6.05a48.483 48.483 0 0 0 8.58-56.94z" fill="#fb6771"/><path d="m134.81 304.13-76.6-76.6a8.552 8.552 0 1 0 -12.1 12.09l76.6 76.6a8.552 8.552 0 0 0 12.1-12.09z" fill="#ffdb00"/><path d="m274.7 87.63a11.117 11.117 0 0 0 -15.72 0l-40.52 40.52 15.73 15.72 40.51-40.51a11.117 11.117 0 0 0 0-15.73z" fill="#ffdb00"/><path d="m83.79 61.89h-30a42.915 42.915 0 0 0 -42.79 42.79v236.54h30v-236.54a42.915 42.915 0 0 1 42.79-42.79z" fill="#b0b5ca"/><path d="m335.17 311.57h30v94.15h-30z" fill="#3090fc"/><g fill="#284268"><path d="m493.212 325.548c-9.5-12.542-21.537-19.58-33.986-19.947l-9.157-43.455a47.662 47.662 0 0 0 -2.829-10.028 48.41 48.41 0 0 0 -38.924-29.665v-24.372a6 6 0 0 0 -6-6h-67.146a6 6 0 0 0 -6 6v137.136h-12.607v-230.536a48.85 48.85 0 0 0 -48.8-48.795h-111.4a6 6 0 0 0 0 12h111.4a36.836 36.836 0 0 1 36.8 36.8v230.531h-287.563v-230.536a36.836 36.836 0 0 1 36.8-36.795h3.151a6 6 0 0 0 0-12h-3.151a48.85 48.85 0 0 0 -48.8 48.795v296.773a10.273 10.273 0 0 0 10.261 10.261h45.864a51.466 51.466 0 0 0 101.958 0h75.353a6 6 0 0 0 0-12h-75.1a51.255 51.255 0 0 0 -13.621-30.192l-.115-.122c-.069-.073-.139-.147-.209-.219a51.437 51.437 0 0 0 -74.579 0c-.071.073-.146.152-.237.249-.029.029-.058.06-.087.091a51.255 51.255 0 0 0 -13.62 30.192h-43.868v-52.5h312.17v52.5h-24.54a6 6 0 0 0 0 12h53.919a51.466 51.466 0 0 0 101.958 0h36.232a10.273 10.273 0 0 0 10.261-10.26v-37.464c0-12.676-5.155-27.046-13.788-38.442zm-409.954 52.167.118-.125c.037-.037.074-.075.11-.113a39.437 39.437 0 0 1 57.235 0l.119.125.109.113a39.32 39.32 0 0 1 10.624 26.93c0 .3 0 .6-.008.932a39.472 39.472 0 0 1 -78.923-.038c-.008-.295-.007-.6-.007-.894a39.318 39.318 0 0 1 10.623-26.93zm352.891-121.015a36.082 36.082 0 0 1 2.118 7.616c.012.069.025.138.039.206l8.649 41.046h-54.69v-71.487h10.051a36.48 36.48 0 0 1 33.833 22.619zm-50.215-52.617h10.382v18h-10.382zm-22.382 0h10.382v18h-10.382zm-22.382 0h10.382v18h-10.382zm0 30h39.095v71.485h-39.095zm107.817 171.5a39.472 39.472 0 0 1 -78.922-.04c-.009-.295-.008-.6-.008-.892a39.47 39.47 0 1 1 78.939 0c.004.29.004.594-.009.926zm46.013-5.868h-34.246a51.464 51.464 0 0 0 -102.455 0h-17.129v-82.149h117.035c19.471 0 36.8 25.96 36.8 46.424z"/><path d="m104.919 67.886h28a6 6 0 1 0 0-12h-28a6 6 0 0 0 0 12z"/><path d="m80.949 67.886a6 6 0 1 0 0-12h-.027a6 6 0 1 0 .027 12z"/><path d="m282.092 399.715h-19.581a6 6 0 0 0 0 12h19.581a6 6 0 0 0 0-12z"/><path d="m112.1 420.645a16.084 16.084 0 0 0 16-15.586c0-.137 0-.277 0-.414a15.969 15.969 0 0 0 -4.339-10.953c-.016-.017-.037-.04-.06-.063a15.993 15.993 0 0 0 -23.188-.014l-.015.015-.011.012-.073.077a15.941 15.941 0 0 0 -4.308 10.92v.373a16.093 16.093 0 0 0 15.994 15.633zm-2.934-18.717.038-.039a3.993 3.993 0 0 1 5.792 0l.033.034.007.008a3.982 3.982 0 0 1 1.064 2.714v.1a4 4 0 1 1 -6.933-2.814z"/><path d="m409.527 388.645a16.017 16.017 0 0 0 -16 16v.374a16 16 0 0 0 31.99.049c0-.139.006-.283.006-.423a16.018 16.018 0 0 0 -15.996-16zm4 16.1a4.007 4.007 0 1 1 0-.1z"/><path d="m129.681 246.691a5.976 5.976 0 0 0 -3.509 7.7 16.189 16.189 0 0 1 -.149 10.035 6 6 0 1 0 11.221 4.253 27.791 27.791 0 0 0 .176-18.468 6.024 6.024 0 0 0 -7.739-3.52z"/><path d="m137.549 196.142-13.149 13.151a54.151 54.151 0 0 0 -59.951 11.573l-2.218 2.218a14.546 14.546 0 0 0 -20.361 20.781l76.6 76.6a14.546 14.546 0 0 0 20.78-20.358l2.218-2.218a54.105 54.105 0 0 0 15.949-38.511 54.73 54.73 0 0 0 -4.382-21.434l13.158-13.158a5.986 5.986 0 0 0 .19-8.253l66.76-66.76a5.906 5.906 0 0 0 5.286-1.657l40.513-40.516a17.118 17.118 0 1 0 -24.208-24.208l-40.515 40.514a5.942 5.942 0 0 0 -1.66 5.288l-66.759 66.758a5.985 5.985 0 0 0 -8.251.19zm-6.986 115.836a2.551 2.551 0 0 1 -3.609 0l-76.6-76.6a2.552 2.552 0 1 1 3.609-3.609l76.6 76.6a2.555 2.555 0 0 1 0 3.609zm132.656-220.1a5.118 5.118 0 0 1 7.238 7.237l-36.272 36.272-7.237-7.238zm-42.943 46.571 3.61 3.609-65.968 65.968-3.61-3.609zm-78.723 94.005a6 6 0 0 0 -1.058 7.053 42.509 42.509 0 0 1 -7.513 49.9l-2.208 2.208-60.05-60.05 2.208-2.208a42.233 42.233 0 0 1 49.9-7.512 6 6 0 0 0 7.053-1.059l11.911-11.91 11.672 11.672z"/><path d="m277.1 261.058h-64.181a6 6 0 1 0 0 12h64.181a6 6 0 1 0 0-12z"/><path d="m277.1 301.558h-20.729a6 6 0 1 0 0 12h20.729a6 6 0 1 0 0-12z"/><path d="m172.919 301.558a6 6 0 1 0 0 12h60a6 6 0 0 0 0-12z"/><path d="m277.1 220.558h-34.181a6 6 0 1 0 0 12h34.181a6 6 0 0 0 0-12z"/><path d="m125.419 103.025a6 6 0 0 0 6 6h11.5a6 6 0 0 0 0-12h-11.5a6 6 0 0 0 -6 6z"/><path d="m108.263 97.025h-64.655a6 6 0 0 0 0 12h64.655a6 6 0 0 0 0-12z"/><path d="m75.419 139.525a6 6 0 0 0 6 6h61.5a6 6 0 0 0 0-12h-61.5a6 6 0 0 0 -6 6z"/><path d="m43.608 145.525h14.655a6 6 0 1 0 0-12h-14.655a6 6 0 0 0 0 12z"/><path d="m43.608 182.025h49.311a6 6 0 1 0 0-12h-49.311a6 6 0 0 0 0 12z"/></g></svg>