<svg id="regular" enable-background="new 0 0 24 24" height="512" viewBox="0 0 24 24" width="512" xmlns="http://www.w3.org/2000/svg"><g><g><path d="m12.078 18.401c-.177 0-.354-.068-.489-.203l-5.788-5.788c-.259-.259-.271-.676-.027-.949l4.338-4.859c3.073-3.596 8.06-5.944 12.46-5.85.369.009.667.306.675.675.102 4.376-2.254 9.388-5.862 12.47l-4.848 4.328c-.13.118-.295.176-.459.176z" fill="#eceff1"/></g><g><path d="m9.613 6.533c-2.738 0-5.311 1.065-7.246 2.999l-.028.029c-.164.164-.221.407-.148.626.073.22.264.38.494.413l3.818.547c.029.004.058.006.087.006.173 0 .34-.074.457-.205l3.023-3.395c.161-.18.2-.438.101-.658-.098-.22-.316-.362-.558-.362z" fill="#2196f3"/></g><g><path d="m18.368 5.631c-.678-.685-1.79-.685-2.476 0-.678.678-.678 1.79 0 2.476.343.336.79.51 1.238.51s.895-.175 1.238-.51c.678-.685.678-1.797 0-2.476z" fill="#2196f3"/></g><g><path d="m6.727 17.274c-1.063-1.054-2.895-1.054-3.958 0-.903.912-2.063 4.666-2.284 5.41-.071.239-.009.496.168.664.124.124.292.195.469.195.062 0 .124-.009.195-.027.744-.221 4.498-1.381 5.41-2.284.522-.531.815-1.231.815-1.975 0-.752-.293-1.451-.815-1.983z" fill="#ff9800"/></g><g><path d="m17.5 23.5c-3.308 0-6-2.692-6-6s2.692-6 6-6 6 2.692 6 6-2.692 6-6 6z" fill="#4caf50"/></g><g><path d="m17.5 24c-3.584 0-6.5-2.916-6.5-6.5s2.916-6.5 6.5-6.5 6.5 2.916 6.5 6.5-2.916 6.5-6.5 6.5zm0-11.5c-2.757 0-5 2.243-5 5s2.243 5 5 5 5-2.243 5-5-2.243-5-5-5z"/></g><g><path d="m16.5 20c-.173 0-.347-.06-.488-.181l-1.75-1.5c-.314-.27-.351-.743-.081-1.058.271-.313.744-.351 1.058-.081l1.202 1.031 2.76-2.972c.283-.303.757-.321 1.061-.04.303.282.32.757.039 1.06l-3.25 3.5c-.149.16-.35.241-.551.241z"/></g><g><path d="m6.681 11.673c-.035 0-.071-.002-.107-.008l-4.677-.67c-.281-.04-.516-.236-.605-.505-.09-.269-.02-.566.182-.767 2.369-2.369 5.604-3.708 8.91-3.708.414 0 .75.336.75.75s-.336.75-.75.75c-2.396 0-4.75.799-6.654 2.229l3.058.438c.41.059.694.438.636.849-.056.372-.376.642-.743.642z"/></g><g><path d="m.75 24c-.196 0-.388-.077-.53-.22-.195-.195-.268-.481-.188-.746.252-.841 1.561-5.089 2.582-6.11 1.191-1.192 3.271-1.192 4.463 0 1.229 1.23 1.229 3.232 0 4.462-1.021 1.021-5.27 2.33-6.111 2.582-.071.022-.144.032-.216.032zm4.095-6.5c-.424 0-.848.162-1.171.484-.436.436-1.187 2.364-1.771 4.112 1.748-.584 3.677-1.335 4.112-1.771.645-.646.645-1.696 0-2.341-.323-.322-.746-.484-1.17-.484zm1.701 3.356h.01z"/></g><g><path d="m17.133 9.367c-.668 0-1.296-.26-1.768-.732-.975-.975-.975-2.561 0-3.536.943-.944 2.59-.945 3.535 0 .975.975.975 2.561 0 3.536-.472.472-1.1.732-1.767.732zm1.237-1.262h.01zm-1.237-2.237c-.268 0-.519.104-.707.292-.39.39-.39 1.024 0 1.415.376.377 1.036.378 1.414 0 .39-.39.39-1.024 0-1.415-.189-.188-.441-.292-.707-.292z"/></g><g><path d="m9.19 16.46c-.192 0-.384-.073-.53-.22l-3.591-3.59c-.281-.281-.294-.733-.029-1.029l4.7-5.27c3.341-3.904 8.757-6.44 13.528-6.351.4.009.723.332.732.732.07 3.028-.903 6.318-2.744 9.265-.219.351-.682.458-1.033.239s-.458-.682-.238-1.034c1.536-2.46 2.414-5.165 2.51-7.697-4.138.163-8.724 2.443-11.625 5.832l-4.238 4.753 3.09 3.089c.293.293.293.768 0 1.061-.148.147-.339.22-.532.22z"/></g></g></svg>