<svg id="Capa_1" enable-background="new 0 0 501 501" height="512" viewBox="0 0 501 501" width="512" xmlns="http://www.w3.org/2000/svg"><g><path d="m490 256c0 135.31-109.69 245-245 245s-245-109.69-245-245 109.69-245 245-245 245 109.69 245 245z" fill="#70bdc8"/><path d="m253.375 330v100c0 4.75-3.312 8.727-7.753 9.746l-7.862 61.148c-10.571-.307-20.975-1.283-31.17-2.889l-8.419-58.931c-3.422-1.588-5.796-5.054-5.796-9.076v-99.998c0-5.523 4.477-10 10-10h41c5.523 0 10 4.477 10 10zm105.625 27.5c0 8.114 2.632 16.009 7.5 22.5v88.798c8.68-4.967 17.028-10.449 25-16.406v-72.392c4.868-6.491 7.5-14.386 7.5-22.5v-157.5h-40z" fill="#2c6a73"/><path d="m237.333 253.742h-34.083c-16.569 0-30-13.431-30-30v-193.742c0-16.569 13.431-30 30-30h34.083c16.569 0 30 13.431 30 30v193.742c0 16.568-13.431 30-30 30z" fill="#2c6a73"/><path d="m471 253.742h-242c-16.569 0-30-13.431-30-30v-193.742c0-16.569 13.431-30 30-30h242c16.569 0 30 13.431 30 30v193.742c0 16.568-13.431 30-30 30z" fill="#36818b"/><path d="m455.25 228.742h-236.25c-11.046 0-20-8.954-20-20v-163.742c0-11.046 8.954-20 20-20h236.25c11.046 0 20 8.954 20 20v163.742c0 11.046-8.954 20-20 20z" fill="#f5e8b4"/><path d="m392.75 190h-51.25c-45.563 0-82.5-36.936-82.5-82.5 0-45.563 36.936-82.5 82.5-82.5h113.75c11.046 0 20 8.954 20 20v62.5c0 45.564-36.936 82.5-82.5 82.5z" fill="#f9f1d2"/><path d="m227.875 420h-10c-5.523 0-10-4.477-10-10v-40c0-5.523 4.477-10 10-10h10c5.523 0 10 4.477 10 10v40c0 5.523-4.477 10-10 10zm-96.994 52.855c10.973 5.787 22.439 10.765 34.319 14.855l18.036-50.422-48.987-10.013zm180.62-45.58-48.987 10.013 21.674 60.594c10.919-1.755 21.598-4.232 31.984-7.381z" fill="#36818b"/><path d="m338.875 350v20c0 5.523-4.477 10-10 10h-20.402l9.397 45.974c1.106 5.411-2.384 10.694-7.795 11.8l-40.169 8.211c-5.411 1.106-10.694-2.384-11.8-7.795l-7.807-38.19h-54.849l-7.806 38.189c-1.106 5.411-6.389 8.901-11.8 7.795l-40.169-8.211c-5.411-1.106-8.901-6.389-7.795-11.8l9.397-45.973h-20.402c-5.523 0-10-4.477-10-10v-20c0-5.523 4.477-10 10-10h28.578l2.453-12.001c1.106-5.411 6.389-8.901 11.8-7.795l40.169 8.211c5.339 1.091 8.808 6.25 7.836 11.585h30.327c-.972-5.335 2.497-10.494 7.836-11.585l40.169-8.211c5.411-1.106 10.694 2.384 11.8 7.795l2.454 12.001h28.578c5.523 0 10 4.477 10 10z" fill="#23535a"/><path d="m126.875 160h-30c-5.523 0-10-4.477-10-10v-53.742c0-5.523 4.477-10 10-10h30c5.523 0 10 4.477 10 10v53.742c0 5.523-4.477 10-10 10z" fill="#badfe4"/><path d="m326.875 150h-110c-11.046 0-20-8.954-20-20v-50c0-11.046 8.954-20 20-20h110c11.046 0 20 8.954 20 20v50c0 11.046-8.954 20-20 20z" fill="#4cacba"/><path d="m326.875 150h-80.875c-11.046 0-20-8.954-20-20v-50c0-11.046 8.954-20 20-20h80.875c11.046 0 20 8.954 20 20v50c0 11.046-8.954 20-20 20z" fill="#70bdc8"/><path d="m316.875 120h-90c-5.523 0-10-4.477-10-10v-20c0-5.523 4.477-10 10-10h90c5.523 0 10 4.477 10 10v20c0 5.523-4.477 10-10 10z" fill="#badfe4"/><path d="m137.775 360h-48.775c-16.569 0-30-13.431-30-30v-102.468c0-16.569 13.431-30 30-30h48.775c16.569 0 30 13.431 30 30v102.468c0 16.569-13.431 30-30 30z" fill="#e9cc5a"/><path d="m356.75 360h-229.875c-16.569 0-30-13.431-30-30v-102.468c0-16.569 13.431-30 30-30h229.875c16.569 0 30 13.431 30 30v102.468c0 16.569-13.431 30-30 30z" fill="#f1de96"/><path d="m167.775 228.742h-108.775v-92.484c0-16.569 13.431-30 30-30h48.775c16.569 0 30 13.431 30 30z" fill="#e5554e"/><path d="m386.75 228.742h-289.875v-92.484c0-16.569 13.431-30 30-30h229.875c16.569 0 30 13.431 30 30z" fill="#f87b67"/><path d="m329 230c0 49.706-40.294 90-90 90s-90-40.294-90-90 40.294-90 90-90 90 40.294 90 90z" fill="#23535a"/><path d="m309 230c0 38.66-31.34 70-70 70s-70-31.34-70-70 31.34-70 70-70 70 31.34 70 70z" fill="#36818b"/><path d="m299 230c0 33.137-26.863 60-60 60s-60-26.863-60-60 26.863-60 60-60 60 26.863 60 60z" fill="#95ced6"/><path d="m299 230c0 10.134-2.512 19.681-6.948 28.052-8.371 4.436-17.918 6.948-28.052 6.948-33.137 0-60-26.863-60-60 0-10.134 2.512-19.681 6.948-28.052 8.371-4.436 17.918-6.948 28.052-6.948 33.137 0 60 26.863 60 60z" fill="#badfe4"/><path d="m332.726 113.685c.444 1.517-.964 2.926-2.481 2.482l-18.606-5.45c-.367-.107-.757-.107-1.124 0l-18.606 5.45c-1.517.444-2.926-.964-2.481-2.482l5.45-18.606c.107-.367.107-.757 0-1.124l-5.45-18.606c-.444-1.517.964-2.926 2.481-2.482l18.606 5.45c.367.108.757.108 1.124 0l18.606-5.45c1.517-.444 2.926.964 2.481 2.482l-5.449 18.606c-.108.367-.108.757 0 1.124z" fill="#fff5f5"/></g></svg>