<svg id="Capa_1" enable-background="new 0 0 490 490" height="512" viewBox="0 0 490 490" width="512" xmlns="http://www.w3.org/2000/svg"><circle cx="245" cy="245" fill="#fec753" r="245"/><path d="m294.673 285h-.147c-5.913 0-10.751 4.838-10.751 10.751s4.838 10.751 10.751 10.751h66.87c5.913 0 10.751-4.838 10.751-10.751s-4.838-10.751-10.751-10.751h-2.629c-8.29-68.984-67.169-122.63-138.351-122.63h-34.008v-40.792h19.377c8.413 0 15.296-6.883 15.296-15.296v-21.986c0-8.413-6.883-15.296-15.296-15.296h-30.011v-5.457c0-5.823-4.72-10.543-10.543-10.543h-20.913c-5.823 0-10.543 4.72-10.543 10.543v5.457h-29.971c-8.413 0-15.296 6.883-15.296 15.296v21.985c0 8.413 6.883 15.296 15.296 15.296h19.377v40.792h-108.881c-7.165 20.003-11.811 41.204-13.536 63.228h219.653c36.23 0 66.61 25.448 74.256 59.403z" fill="#35528c"/><path d="m186.409 121.578h19.377c8.413 0 15.296-6.883 15.296-15.296v-21.986c0-8.413-6.883-15.296-15.296-15.296h-30.011v-5.457c0-5.823-4.72-10.543-10.543-10.543h-20.913c-5.823 0-10.543 4.72-10.543 10.543v5.457h-29.971c-8.413 0-15.296 6.883-15.296 15.296v21.985c0 8.413 6.883 15.296 15.296 15.296h19.377v22.423h63.228v-22.422z" fill="#1f3a60"/><path d="m316.959 306c2.061-.023-1-21-1-21l-.879-5.583c-9.461-42.015-47.052-73.504-91.883-73.504h-134.438c-22.33 0-38.101-22.089-30.609-43.125.05-.14.1-.28.15-.419h-44c-6.593 18.404-11.045 37.825-13.06 57.966-.015.145-.031.291-.045.436-.158 1.604-.304 3.212-.431 4.826h44 175.653c36.23 0 66.61 25.448 74.256 59.403h-.03c-4.893 0-9.302 3.227-10.513 7.968-1.814 7.098 3.576 13.534 10.396 13.534h37.024c.031-.171.065-.332.1-.494z" fill="#1f3a60"/><path d="m294.526 306.502h66.87c5.913 0 10.751-4.838 10.751-10.751 0-5.913-4.838-10.751-10.751-10.751h-66.87c-5.913 0-10.751 4.838-10.751 10.751 0 5.913 4.838 10.751 10.751 10.751z" fill="#0c1f35"/><path d="m133.775 71h42v-7.457c0-5.823-4.72-10.543-10.543-10.543h-20.913c-5.823 0-10.543 4.72-10.543 10.543v7.457z" fill="#0c1f35"/><path d="m103.804 121.578h101.982c8.413 0 15.296-6.883 15.296-15.296v-21.986c0-8.413-6.883-15.296-15.296-15.296h-101.982c-8.413 0-15.296 6.883-15.296 15.296v21.985c0 8.413 6.883 15.297 15.296 15.297z" fill="#fe5d6d"/><path d="m120.508 106.281v-21.985c0-8.413 6.883-15.296 15.296-15.296h-32c-8.413 0-15.296 6.883-15.296 15.296v21.985c0 8.413 6.883 15.296 15.296 15.296h32c-8.413.001-15.296-6.883-15.296-15.296z" fill="#d33c60"/><g fill="#0c1f35"><path d="m201.275 111c1.933 0 3.5-1.567 3.5-3.5v-25c0-1.933-1.567-3.5-3.5-3.5-1.933 0-3.5 1.567-3.5 3.5v25c0 1.933 1.567 3.5 3.5 3.5z"/><path d="m178.275 111c1.933 0 3.5-1.567 3.5-3.5v-25c0-1.933-1.567-3.5-3.5-3.5-1.933 0-3.5 1.567-3.5 3.5v25c0 1.933 1.567 3.5 3.5 3.5z"/><path d="m155.275 111c1.933 0 3.5-1.567 3.5-3.5v-25c0-1.933-1.567-3.5-3.5-3.5-1.933 0-3.5 1.567-3.5 3.5v25c0 1.933 1.567 3.5 3.5 3.5z"/><path d="m132.275 111c1.933 0 3.5-1.567 3.5-3.5v-25c0-1.933-1.567-3.5-3.5-3.5-1.933 0-3.5 1.567-3.5 3.5v25c0 1.933 1.567 3.5 3.5 3.5z"/><path d="m109.275 111c1.933 0 3.5-1.567 3.5-3.5v-25c0-1.933-1.567-3.5-3.5-3.5-1.933 0-3.5 1.567-3.5 3.5v25c0 1.933 1.567 3.5 3.5 3.5z"/></g><path d="m405.98 374.719c-2.693 0-5.322 1.363-6.826 3.831-15.297 25.102-41.956 40.088-71.312 40.088s-56.015-14.986-71.312-40.088c-2.294-3.766-7.208-4.959-10.974-2.663-3.766 2.295-4.958 7.208-2.663 10.974 8.715 14.302 20.997 26.268 35.516 34.604 14.977 8.598 32.071 13.143 49.434 13.143s34.457-4.545 49.434-13.143c14.519-8.336 26.8-20.302 35.516-34.604 2.295-3.766 1.103-8.679-2.663-10.974-1.299-.791-2.733-1.168-4.15-1.168z" fill="#fff"/><path d="m376.179 348.36c-2.693 0-5.322 1.363-6.826 3.831-8.905 14.612-24.423 23.336-41.51 23.336s-32.605-8.724-41.51-23.336c-2.295-3.766-7.208-4.958-10.974-2.663s-4.958 7.208-2.663 10.974c11.828 19.408 32.444 30.995 55.147 30.995s43.319-11.587 55.147-30.995c2.295-3.766 1.103-8.679-2.663-10.974-1.298-.791-2.732-1.168-4.148-1.168z" fill="#fff"/><path d="m346.376 322c-2.693 0-5.322 1.363-6.826 3.831-2.512 4.122-6.889 6.584-11.708 6.584s-9.195-2.461-11.707-6.584c-2.295-3.767-7.21-4.959-10.974-2.664-3.766 2.295-4.958 7.208-2.664 10.974 5.435 8.919 14.91 14.244 25.345 14.244s19.91-5.325 25.345-14.244c2.295-3.766 1.102-8.679-2.664-10.974-1.296-.79-2.731-1.167-4.147-1.167z" fill="#fff"/><path d="m385.677 96.942c0-13.753-11.189-24.942-24.942-24.942h-57.714c-2.643-4.769-7.723-8-13.561-8-8.56 0-15.5 6.94-15.5 15.5s6.94 15.5 15.5 15.5c5.839 0 10.918-3.231 13.561-8h57.714c5.482 0 9.942 4.46 9.942 9.942 0 13.753 11.188 24.941 24.941 24.941h5.536v32.084c0 3.878-3.154 7.032-7.032 7.032h-52.102c-2.643-4.769-7.723-8-13.561-8-8.56 0-15.5 6.94-15.5 15.5s6.94 15.5 15.5 15.5c5.839 0 10.918-3.231 13.561-8h52.102c12.148 0 22.032-9.884 22.032-22.032v-32.084h40.696c-2.982-5.121-6.145-10.124-9.479-15h-51.753c-5.481.001-9.941-4.459-9.941-9.941z" fill="#08d3cf"/><path d="m101.459 304.442v77.115c0 13.753 11.189 24.942 24.942 24.942h58.241c2.559 5.039 7.778 8.5 13.816 8.5 8.56 0 15.5-6.94 15.5-15.5s-6.94-15.5-15.5-15.5c-5.629 0-10.542 3.011-13.258 7.5h-58.8c-5.482 0-9.942-4.46-9.942-9.942v-52.057h56.184c2.559 5.039 7.778 8.5 13.816 8.5 8.56 0 15.5-6.94 15.5-15.5s-6.94-15.5-15.5-15.5c-5.629 0-10.542 3.011-13.258 7.5h-56.742v-10.058c0-13.753-11.189-24.942-24.942-24.942h-89.086c.712 5.049 1.56 10.054 2.575 15h86.512c5.482 0 9.942 4.46 9.942 9.942z" fill="#08d3cf"/></svg>